<mxfile host="app.diagrams.net" agent="Mozilla/5.0 (Windows NT 10.0; Win64; x64) AppleWebKit/537.36 (KHTML, like Gecko) Chrome/129.0.0.0 Safari/537.36" version="24.7.17">
  <diagram name="Сторінка-1" id="PTxrk3vO0zgb0Zn6yELJ">
    <mxGraphModel dx="913" dy="484" grid="1" gridSize="10" guides="1" tooltips="1" connect="1" arrows="1" fold="1" page="1" pageScale="1" pageWidth="827" pageHeight="1169" math="0" shadow="0">
      <root>
        <mxCell id="0" />
        <mxCell id="1" parent="0" />
        <mxCell id="3ElYdLrJ8FRYU3eH5m6_-3" value="" style="edgeStyle=orthogonalEdgeStyle;rounded=0;orthogonalLoop=1;jettySize=auto;html=1;" edge="1" parent="1" source="3ElYdLrJ8FRYU3eH5m6_-1" target="3ElYdLrJ8FRYU3eH5m6_-2">
          <mxGeometry relative="1" as="geometry" />
        </mxCell>
        <mxCell id="3ElYdLrJ8FRYU3eH5m6_-1" value="Begining of the program" style="ellipse;whiteSpace=wrap;html=1;" vertex="1" parent="1">
          <mxGeometry x="430" y="80" width="120" height="80" as="geometry" />
        </mxCell>
        <mxCell id="3ElYdLrJ8FRYU3eH5m6_-5" value="" style="edgeStyle=orthogonalEdgeStyle;rounded=0;orthogonalLoop=1;jettySize=auto;html=1;" edge="1" parent="1" source="3ElYdLrJ8FRYU3eH5m6_-2" target="3ElYdLrJ8FRYU3eH5m6_-4">
          <mxGeometry relative="1" as="geometry" />
        </mxCell>
        <mxCell id="3ElYdLrJ8FRYU3eH5m6_-2" value="Enter the initial:" style="shape=parallelogram;perimeter=parallelogramPerimeter;whiteSpace=wrap;html=1;fixedSize=1;" vertex="1" parent="1">
          <mxGeometry x="430" y="230" width="120" height="60" as="geometry" />
        </mxCell>
        <mxCell id="3ElYdLrJ8FRYU3eH5m6_-7" value="" style="edgeStyle=orthogonalEdgeStyle;rounded=0;orthogonalLoop=1;jettySize=auto;html=1;" edge="1" parent="1">
          <mxGeometry relative="1" as="geometry">
            <mxPoint x="450" y="430" as="sourcePoint" />
            <mxPoint x="490" y="510" as="targetPoint" />
            <Array as="points">
              <mxPoint x="490" y="430" />
            </Array>
          </mxGeometry>
        </mxCell>
        <mxCell id="3ElYdLrJ8FRYU3eH5m6_-4" value="Enter the interest rate:" style="shape=parallelogram;perimeter=parallelogramPerimeter;whiteSpace=wrap;html=1;fixedSize=1;" vertex="1" parent="1">
          <mxGeometry x="430" y="370" width="120" height="60" as="geometry" />
        </mxCell>
        <mxCell id="3ElYdLrJ8FRYU3eH5m6_-9" value="" style="edgeStyle=orthogonalEdgeStyle;rounded=0;orthogonalLoop=1;jettySize=auto;html=1;" edge="1" parent="1" source="3ElYdLrJ8FRYU3eH5m6_-6">
          <mxGeometry relative="1" as="geometry">
            <mxPoint x="490" y="650" as="targetPoint" />
          </mxGeometry>
        </mxCell>
        <mxCell id="3ElYdLrJ8FRYU3eH5m6_-6" value="divide the rate by 100" style="whiteSpace=wrap;html=1;" vertex="1" parent="1">
          <mxGeometry x="430" y="510" width="120" height="60" as="geometry" />
        </mxCell>
        <mxCell id="3ElYdLrJ8FRYU3eH5m6_-12" value="Enter the amount of charges" style="rhombus;whiteSpace=wrap;html=1;" vertex="1" parent="1">
          <mxGeometry x="450" y="650" width="80" height="80" as="geometry" />
        </mxCell>
        <mxCell id="3ElYdLrJ8FRYU3eH5m6_-13" value="" style="endArrow=classic;html=1;rounded=0;" edge="1" parent="1">
          <mxGeometry width="50" height="50" relative="1" as="geometry">
            <mxPoint x="489.8" y="730" as="sourcePoint" />
            <mxPoint x="489.8" y="781.9592036033164" as="targetPoint" />
          </mxGeometry>
        </mxCell>
        <mxCell id="3ElYdLrJ8FRYU3eH5m6_-21" value="case 4" style="edgeLabel;html=1;align=center;verticalAlign=middle;resizable=0;points=[];" vertex="1" connectable="0" parent="3ElYdLrJ8FRYU3eH5m6_-13">
          <mxGeometry x="-0.1763" relative="1" as="geometry">
            <mxPoint as="offset" />
          </mxGeometry>
        </mxCell>
        <mxCell id="3ElYdLrJ8FRYU3eH5m6_-14" value="" style="endArrow=none;html=1;rounded=0;" edge="1" parent="1">
          <mxGeometry width="50" height="50" relative="1" as="geometry">
            <mxPoint x="450" y="689.8" as="sourcePoint" />
            <mxPoint x="420" y="689.8" as="targetPoint" />
          </mxGeometry>
        </mxCell>
        <mxCell id="3ElYdLrJ8FRYU3eH5m6_-15" value="" style="endArrow=none;html=1;rounded=0;" edge="1" parent="1">
          <mxGeometry width="50" height="50" relative="1" as="geometry">
            <mxPoint x="560" y="689.8" as="sourcePoint" />
            <mxPoint x="530" y="689.8" as="targetPoint" />
          </mxGeometry>
        </mxCell>
        <mxCell id="3ElYdLrJ8FRYU3eH5m6_-16" value="" style="endArrow=classic;html=1;rounded=0;" edge="1" parent="1">
          <mxGeometry width="50" height="50" relative="1" as="geometry">
            <mxPoint x="560" y="690" as="sourcePoint" />
            <mxPoint x="520" y="770" as="targetPoint" />
          </mxGeometry>
        </mxCell>
        <mxCell id="3ElYdLrJ8FRYU3eH5m6_-22" value="case 12" style="edgeLabel;html=1;align=center;verticalAlign=middle;resizable=0;points=[];" vertex="1" connectable="0" parent="3ElYdLrJ8FRYU3eH5m6_-16">
          <mxGeometry x="-0.0527" y="-1" relative="1" as="geometry">
            <mxPoint as="offset" />
          </mxGeometry>
        </mxCell>
        <mxCell id="3ElYdLrJ8FRYU3eH5m6_-17" value="" style="endArrow=classic;html=1;rounded=0;" edge="1" parent="1">
          <mxGeometry width="50" height="50" relative="1" as="geometry">
            <mxPoint x="420" y="690" as="sourcePoint" />
            <mxPoint x="460" y="770" as="targetPoint" />
          </mxGeometry>
        </mxCell>
        <mxCell id="3ElYdLrJ8FRYU3eH5m6_-20" value="case 1" style="edgeLabel;html=1;align=center;verticalAlign=middle;resizable=0;points=[];" vertex="1" connectable="0" parent="3ElYdLrJ8FRYU3eH5m6_-17">
          <mxGeometry x="-0.0113" relative="1" as="geometry">
            <mxPoint as="offset" />
          </mxGeometry>
        </mxCell>
        <mxCell id="3ElYdLrJ8FRYU3eH5m6_-18" value="" style="endArrow=classic;html=1;rounded=0;" edge="1" parent="1" source="3ElYdLrJ8FRYU3eH5m6_-12">
          <mxGeometry width="50" height="50" relative="1" as="geometry">
            <mxPoint x="450" y="640" as="sourcePoint" />
            <mxPoint x="370" y="620" as="targetPoint" />
          </mxGeometry>
        </mxCell>
        <mxCell id="3ElYdLrJ8FRYU3eH5m6_-19" value="default" style="edgeLabel;html=1;align=center;verticalAlign=middle;resizable=0;points=[];" vertex="1" connectable="0" parent="3ElYdLrJ8FRYU3eH5m6_-18">
          <mxGeometry x="0.0036" y="-1" relative="1" as="geometry">
            <mxPoint as="offset" />
          </mxGeometry>
        </mxCell>
        <mxCell id="3ElYdLrJ8FRYU3eH5m6_-23" value="return 1" style="ellipse;whiteSpace=wrap;html=1;" vertex="1" parent="1">
          <mxGeometry x="260" y="560" width="120" height="80" as="geometry" />
        </mxCell>
        <mxCell id="3ElYdLrJ8FRYU3eH5m6_-26" value="" style="edgeStyle=orthogonalEdgeStyle;rounded=0;orthogonalLoop=1;jettySize=auto;html=1;" edge="1" parent="1" source="3ElYdLrJ8FRYU3eH5m6_-24">
          <mxGeometry relative="1" as="geometry">
            <mxPoint x="490" y="890" as="targetPoint" />
          </mxGeometry>
        </mxCell>
        <mxCell id="3ElYdLrJ8FRYU3eH5m6_-24" value="Enter the amount of time" style="shape=parallelogram;perimeter=parallelogramPerimeter;whiteSpace=wrap;html=1;fixedSize=1;" vertex="1" parent="1">
          <mxGeometry x="430" y="780" width="120" height="60" as="geometry" />
        </mxCell>
        <mxCell id="3ElYdLrJ8FRYU3eH5m6_-29" value="" style="edgeStyle=orthogonalEdgeStyle;rounded=0;orthogonalLoop=1;jettySize=auto;html=1;" edge="1" parent="1" source="3ElYdLrJ8FRYU3eH5m6_-25">
          <mxGeometry relative="1" as="geometry">
            <mxPoint x="490" y="1000" as="targetPoint" />
          </mxGeometry>
        </mxCell>
        <mxCell id="3ElYdLrJ8FRYU3eH5m6_-25" value="calculating result" style="whiteSpace=wrap;html=1;" vertex="1" parent="1">
          <mxGeometry x="430" y="890" width="120" height="60" as="geometry" />
        </mxCell>
        <mxCell id="3ElYdLrJ8FRYU3eH5m6_-31" value="" style="edgeStyle=orthogonalEdgeStyle;rounded=0;orthogonalLoop=1;jettySize=auto;html=1;" edge="1" parent="1" source="3ElYdLrJ8FRYU3eH5m6_-28" target="3ElYdLrJ8FRYU3eH5m6_-30">
          <mxGeometry relative="1" as="geometry" />
        </mxCell>
        <mxCell id="3ElYdLrJ8FRYU3eH5m6_-28" value="calculating income" style="whiteSpace=wrap;html=1;" vertex="1" parent="1">
          <mxGeometry x="430" y="1000" width="120" height="60" as="geometry" />
        </mxCell>
        <mxCell id="3ElYdLrJ8FRYU3eH5m6_-33" value="" style="edgeStyle=orthogonalEdgeStyle;rounded=0;orthogonalLoop=1;jettySize=auto;html=1;" edge="1" parent="1">
          <mxGeometry relative="1" as="geometry">
            <mxPoint x="294.64" y="1000" as="sourcePoint" />
            <mxPoint x="294.64" y="929.3332866414253" as="targetPoint" />
            <Array as="points">
              <mxPoint x="294.64" y="980" />
              <mxPoint x="294.64" y="980" />
            </Array>
          </mxGeometry>
        </mxCell>
        <mxCell id="3ElYdLrJ8FRYU3eH5m6_-30" value="Output of initial, result and income" style="shape=parallelogram;perimeter=parallelogramPerimeter;whiteSpace=wrap;html=1;fixedSize=1;" vertex="1" parent="1">
          <mxGeometry x="230" y="1000" width="120" height="60" as="geometry" />
        </mxCell>
        <mxCell id="3ElYdLrJ8FRYU3eH5m6_-32" value="return o" style="ellipse;whiteSpace=wrap;html=1;" vertex="1" parent="1">
          <mxGeometry x="240" y="850" width="110" height="80" as="geometry" />
        </mxCell>
      </root>
    </mxGraphModel>
  </diagram>
</mxfile>
